<mxfile host="app.diagrams.net" modified="2022-11-25T14:18:53.096Z" agent="5.0 (Windows NT 10.0; Win64; x64) AppleWebKit/537.36 (KHTML, like Gecko) Chrome/107.0.0.0 Safari/537.36" version="20.6.0" etag="l79VfQ6ZccuBYpO8VyQP" type="github">
  <diagram id="Nar-YL3yUSGKBsn7vBqp" name="第 1 页">
    <mxGraphModel dx="870" dy="538" grid="1" gridSize="10" guides="1" tooltips="1" connect="1" arrows="1" fold="1" page="1" pageScale="1" pageWidth="827" pageHeight="1169" math="0" shadow="0">
      <root>
        <mxCell id="0" />
        <mxCell id="1" parent="0" />
        <mxCell id="EpZc5_kadwhAyWc8rpwV-1" value="挂载点服务" style="rounded=0;whiteSpace=wrap;html=1;" vertex="1" parent="1">
          <mxGeometry x="130" y="420" width="120" height="60" as="geometry" />
        </mxCell>
        <mxCell id="EpZc5_kadwhAyWc8rpwV-2" value="用户程序" style="rounded=0;whiteSpace=wrap;html=1;" vertex="1" parent="1">
          <mxGeometry x="130" y="230" width="150" height="80" as="geometry" />
        </mxCell>
        <mxCell id="EpZc5_kadwhAyWc8rpwV-3" value="文件系统服务" style="rounded=0;whiteSpace=wrap;html=1;" vertex="1" parent="1">
          <mxGeometry x="324" y="250" width="120" height="60" as="geometry" />
        </mxCell>
        <mxCell id="EpZc5_kadwhAyWc8rpwV-4" value="驱动服务" style="rounded=0;whiteSpace=wrap;html=1;" vertex="1" parent="1">
          <mxGeometry x="517" y="290" width="120" height="60" as="geometry" />
        </mxCell>
        <mxCell id="EpZc5_kadwhAyWc8rpwV-5" value="进程管理服务" style="rounded=0;whiteSpace=wrap;html=1;" vertex="1" parent="1">
          <mxGeometry x="324.5" y="420" width="120" height="60" as="geometry" />
        </mxCell>
        <mxCell id="EpZc5_kadwhAyWc8rpwV-6" value="" style="outlineConnect=0;dashed=0;verticalLabelPosition=bottom;verticalAlign=top;align=center;html=1;shape=mxgraph.aws3.disk;fillColor=#7D7C7C;gradientColor=none;" vertex="1" parent="1">
          <mxGeometry x="514.5" y="410" width="61" height="40" as="geometry" />
        </mxCell>
        <mxCell id="EpZc5_kadwhAyWc8rpwV-7" value="持久化设备" style="text;html=1;strokeColor=none;fillColor=none;align=center;verticalAlign=middle;whiteSpace=wrap;rounded=0;" vertex="1" parent="1">
          <mxGeometry x="500" y="450" width="90" height="30" as="geometry" />
        </mxCell>
        <mxCell id="EpZc5_kadwhAyWc8rpwV-8" value="musl-libc" style="rounded=0;whiteSpace=wrap;html=1;fillColor=#000000;fillStyle=hatch;" vertex="1" parent="1">
          <mxGeometry x="130" y="210" width="150" height="20" as="geometry" />
        </mxCell>
        <mxCell id="EpZc5_kadwhAyWc8rpwV-10" value="IPC请求分发函数" style="rounded=0;whiteSpace=wrap;html=1;fillColor=#CCCCCC;" vertex="1" parent="1">
          <mxGeometry x="324" y="310" width="120" height="20" as="geometry" />
        </mxCell>
        <mxCell id="EpZc5_kadwhAyWc8rpwV-11" value="IPC请求分发函数" style="rounded=0;whiteSpace=wrap;html=1;fillColor=#CCCCCC;" vertex="1" parent="1">
          <mxGeometry x="517" y="270" width="120" height="20" as="geometry" />
        </mxCell>
        <mxCell id="EpZc5_kadwhAyWc8rpwV-12" value="IPC请求分发函数" style="rounded=0;whiteSpace=wrap;html=1;fillColor=#CCCCCC;" vertex="1" parent="1">
          <mxGeometry x="130" y="400" width="120" height="20" as="geometry" />
        </mxCell>
        <mxCell id="EpZc5_kadwhAyWc8rpwV-13" value="IPC请求分发函数" style="rounded=0;whiteSpace=wrap;html=1;fillColor=#CCCCCC;" vertex="1" parent="1">
          <mxGeometry x="324.5" y="480" width="120" height="20" as="geometry" />
        </mxCell>
        <mxCell id="EpZc5_kadwhAyWc8rpwV-24" style="edgeStyle=orthogonalEdgeStyle;curved=1;rounded=0;orthogonalLoop=1;jettySize=auto;html=1;exitX=0.5;exitY=1;exitDx=0;exitDy=0;entryX=0.25;entryY=1;entryDx=0;entryDy=0;" edge="1" parent="1" source="EpZc5_kadwhAyWc8rpwV-14" target="EpZc5_kadwhAyWc8rpwV-13">
          <mxGeometry relative="1" as="geometry" />
        </mxCell>
        <mxCell id="EpZc5_kadwhAyWc8rpwV-14" value="持有FS句柄" style="rounded=0;whiteSpace=wrap;html=1;fillColor=#CCCCCC;" vertex="1" parent="1">
          <mxGeometry x="180" y="480" width="70" height="20" as="geometry" />
        </mxCell>
        <mxCell id="EpZc5_kadwhAyWc8rpwV-26" style="edgeStyle=orthogonalEdgeStyle;curved=1;rounded=0;orthogonalLoop=1;jettySize=auto;html=1;exitX=0.5;exitY=0;exitDx=0;exitDy=0;entryX=0;entryY=0.5;entryDx=0;entryDy=0;dashed=1;dashPattern=1 1;" edge="1" parent="1" source="EpZc5_kadwhAyWc8rpwV-15" target="EpZc5_kadwhAyWc8rpwV-3">
          <mxGeometry relative="1" as="geometry" />
        </mxCell>
        <mxCell id="EpZc5_kadwhAyWc8rpwV-15" value="启动FS" style="rounded=0;whiteSpace=wrap;html=1;fillStyle=dashed;fillColor=#666666;" vertex="1" parent="1">
          <mxGeometry x="324.5" y="400" width="50" height="20" as="geometry" />
        </mxCell>
        <mxCell id="EpZc5_kadwhAyWc8rpwV-28" style="edgeStyle=orthogonalEdgeStyle;curved=1;rounded=0;orthogonalLoop=1;jettySize=auto;html=1;exitX=0.5;exitY=1;exitDx=0;exitDy=0;dashed=1;" edge="1" parent="1" source="EpZc5_kadwhAyWc8rpwV-16" target="EpZc5_kadwhAyWc8rpwV-6">
          <mxGeometry relative="1" as="geometry" />
        </mxCell>
        <mxCell id="EpZc5_kadwhAyWc8rpwV-16" value="读/写设备" style="rounded=0;whiteSpace=wrap;html=1;fillStyle=dashed;fillColor=#666666;" vertex="1" parent="1">
          <mxGeometry x="517" y="350" width="56" height="20" as="geometry" />
        </mxCell>
        <mxCell id="EpZc5_kadwhAyWc8rpwV-22" style="edgeStyle=orthogonalEdgeStyle;rounded=0;orthogonalLoop=1;jettySize=auto;html=1;exitX=0.5;exitY=1;exitDx=0;exitDy=0;entryX=0.25;entryY=0;entryDx=0;entryDy=0;curved=1;" edge="1" parent="1" source="EpZc5_kadwhAyWc8rpwV-17" target="EpZc5_kadwhAyWc8rpwV-12">
          <mxGeometry relative="1" as="geometry" />
        </mxCell>
        <mxCell id="EpZc5_kadwhAyWc8rpwV-17" value="挂载" style="rounded=0;whiteSpace=wrap;html=1;fillColor=#CCCCCC;" vertex="1" parent="1">
          <mxGeometry x="130" y="310" width="40" height="20" as="geometry" />
        </mxCell>
        <mxCell id="EpZc5_kadwhAyWc8rpwV-23" style="edgeStyle=orthogonalEdgeStyle;curved=1;rounded=0;orthogonalLoop=1;jettySize=auto;html=1;exitX=0.5;exitY=1;exitDx=0;exitDy=0;entryX=0.25;entryY=1;entryDx=0;entryDy=0;" edge="1" parent="1" source="EpZc5_kadwhAyWc8rpwV-18" target="EpZc5_kadwhAyWc8rpwV-10">
          <mxGeometry relative="1" as="geometry" />
        </mxCell>
        <mxCell id="EpZc5_kadwhAyWc8rpwV-18" value="使用FS" style="rounded=0;whiteSpace=wrap;html=1;fillColor=#CCCCCC;" vertex="1" parent="1">
          <mxGeometry x="220" y="310" width="60" height="20" as="geometry" />
        </mxCell>
        <mxCell id="EpZc5_kadwhAyWc8rpwV-27" style="edgeStyle=orthogonalEdgeStyle;curved=1;rounded=0;orthogonalLoop=1;jettySize=auto;html=1;exitX=0.5;exitY=0;exitDx=0;exitDy=0;entryX=0;entryY=0.5;entryDx=0;entryDy=0;dashed=1;dashPattern=1 1;" edge="1" parent="1" source="EpZc5_kadwhAyWc8rpwV-25" target="EpZc5_kadwhAyWc8rpwV-4">
          <mxGeometry relative="1" as="geometry" />
        </mxCell>
        <mxCell id="EpZc5_kadwhAyWc8rpwV-25" value="启动驱动" style="rounded=0;whiteSpace=wrap;html=1;fillStyle=dashed;fillColor=#666666;" vertex="1" parent="1">
          <mxGeometry x="384" y="400" width="60" height="20" as="geometry" />
        </mxCell>
        <mxCell id="EpZc5_kadwhAyWc8rpwV-30" style="edgeStyle=orthogonalEdgeStyle;curved=1;rounded=0;orthogonalLoop=1;jettySize=auto;html=1;exitX=0.5;exitY=0;exitDx=0;exitDy=0;entryX=0.5;entryY=0;entryDx=0;entryDy=0;" edge="1" parent="1" source="EpZc5_kadwhAyWc8rpwV-29" target="EpZc5_kadwhAyWc8rpwV-11">
          <mxGeometry relative="1" as="geometry" />
        </mxCell>
        <mxCell id="EpZc5_kadwhAyWc8rpwV-29" value="驱动请求" style="rounded=0;whiteSpace=wrap;html=1;fillColor=#CCCCCC;" vertex="1" parent="1">
          <mxGeometry x="384" y="210" width="60" height="20" as="geometry" />
        </mxCell>
        <mxCell id="EpZc5_kadwhAyWc8rpwV-31" value="文件系统功能" style="rounded=0;whiteSpace=wrap;html=1;fillColor=#000000;fillStyle=hatch;" vertex="1" parent="1">
          <mxGeometry x="324" y="230" width="120" height="20" as="geometry" />
        </mxCell>
      </root>
    </mxGraphModel>
  </diagram>
</mxfile>
